<svg xmlns="http://www.w3.org/2000/svg" viewBox="0 0 100 100" fill="#FB4B69">
  <path d="M19.2,-30.7C26.2,-29.1,34.2,-26.7,37.9,-21.5C41.7,-16.2,41.2,-8.1,40.5,-0.4C39.9,7.4,39.1,14.8,35.9,20.9C32.7,27.1,27,32,20.6,35.4C14.2,38.9,7.1,40.8,-0.5,41.6C-8,42.4,-16.1,42.1,-22.7,38.8C-29.2,35.4,-34.4,29.1,-38.5,22.2C-42.7,15.2,-45.8,7.6,-44.6,0.7C-43.3,-6.2,-37.7,-12.3,-32.9,-18.2C-28.1,-24.1,-24.2,-29.6,-18.9,-32.2C-13.5,-34.7,-6.8,-34.3,-0.4,-33.7C6.1,-33.1,12.1,-32.3,19.2,-30.7Z" transform="translate(50 50)" />
</svg>
