<svg xmlns="http://www.w3.org/2000/svg" viewBox="0 0 512 512">
  <path style="fill:#fb4b69" transform="translate(267.02 233.791)scale(5.68)" d="M19.2-30.7c7 1.6 15 4 18.7 9.2 3.8 5.3 3.3 13.4 2.6 21.1-.6 7.8-1.4 15.2-4.6 21.3C32.7 27.1 27 32 20.6 35.4c-6.4 3.5-13.5 5.4-21.1 6.2-7.5.8-15.6.5-22.2-2.8-6.5-3.4-11.7-9.7-15.8-16.6-4.2-7-7.3-14.6-6.1-21.5 1.3-6.9 6.9-13 11.7-18.9s8.7-11.4 14-14c5.4-2.5 12.1-2.1 18.5-1.5 6.5.6 12.5 1.4 19.6 3" />
  <path style="stroke:#fff;stroke-width:0;fill:#fff" transform="translate(63.595 149.041)scale(3.03)" d="m60.4 23-2.9 1.7 2.7-14.3q3.9-2.1 9.4-3.75a46 46 0 0 1 3.942-1.005q2.056-.423 3.893-.569.931-.075 1.865-.076 7.564 0 12.475 3.445.608.426 1.175.905a14.14 14.14 0 0 1 5.112 10.334q.038.607.038 1.216a21.3 21.3 0 0 1-2.023 8.798q-1.456 3.225-3.962 6.532A53 53 0 0 1 87.9 41.1l-17.4 18 31.2-1.8-1.7 13.3-20.8-.9-23.6.7 1.6-10.5 21-24.2a40 40 0 0 0 2.902-3.645q2.734-3.913 3.268-7.198a10 10 0 0 0 .13-1.557 6.5 6.5 0 0 0-.418-2.434Q82.813 17.7 77.7 17.7a23.7 23.7 0 0 0-4.376.431q-2.038.382-4.241 1.105-.318.104-.633.214-3.497 1.212-6.01 2.447-1.043.51-2.04 1.103ZM0 53.8l.8-8.6L24.6 7.7l16.5-2-1.4 38.7 9.6-.4-1 10.1-8-.2.6 16.1h-14l1-16.3zM111.9 2.5 127 0l-5.6 44.3-9.5 1.4zM28.1 44.2l-.5-25.6-15.9 25.7zm82.591 13.46a8 8 0 0 0-2.391 5.79q0 .168.005.336.032 1.165.292 2.147A6.3 6.3 0 0 0 110.1 68.7a5.85 5.85 0 0 0 2.86 1.655 8.4 8.4 0 0 0 2.09.245 6.8 6.8 0 0 0 3.4-.875 8.2 8.2 0 0 0 2.05-1.675q2.3-2.55 2.3-5.95t-1.65-5.15a5 5 0 0 0-.985-.806q-1.515-.944-3.865-.944a7.4 7.4 0 0 0-3.261.733 8.4 8.4 0 0 0-2.348 1.727Z" />
</svg>
